<svg width="720" height="940" xmlns="http://www.w3.org/2000/svg" preserveAspectRatio="xMidYMid meet">

 <g>
  <title>background</title>
  <rect fill="none" id="canvas_background" height="402" width="582" y="-1" x="-1"/>
 </g>
 <g>
  <title>Layer 1</title>
  <g fill="#359bef" id="layer2">
   <path id="svg_10" d="m290,910c0,-13 7,-20 20,-20c35,0 41,-32 38,-198l-3,-157l-42,-3c-30,-2 -43,1 -44,10c-1,7 -2,18 -4,23c-1,6 -3,16 -3,23c-1,6 -11,12 -22,12c-18,0 -20,-7 -20,-60l0,-59l157,2l157,2l7,32c9,47 0,83 -22,83c-13,0 -19,-9 -21,-32c-3,-31 -6,-33 -46,-36l-42,-3l2,178c3,169 4,178 23,182c22,4 36,21 29,33c-3,4 -41,8 -85,8c-72,0 -79,-2 -79,-20z"/>
   <path id="svg_11" d="m17,453c-13,-12 -7,-24 18,-33l25,-10l0,-170l0,-170l-25,-10c-14,-5 -25,-14 -25,-19c0,-20 31,-27 136,-30l112,-2l36,31l36,32l0,166l0,166l-27,28c-27,28 -28,28 -153,28c-70,0 -130,-3 -133,-7zm245,-60c16,-14 18,-33 18,-159c0,-141 -1,-144 -24,-159c-17,-11 -42,-15 -83,-13l-58,3l-3,160c-1,87 0,165 2,172c8,20 125,17 148,-4z"/>
   <path id="svg_12" d="m430,441c0,-10 9,-21 20,-24c19,-5 20,-14 20,-177c0,-163 -1,-172 -20,-177c-11,-3 -20,-14 -20,-24c0,-11 1,-19 3,-20c13,-5 220,-8 245,-4c33,6 33,6 30,58c-2,39 -7,53 -20,55c-12,2 -17,-5 -20,-30l-3,-33l-70,0l-70,0l-3,54c-5,96 -2,101 73,101c58,0 65,2 65,20c0,17 -8,19 -67,22l-68,3l0,75l0,75l68,3c49,2 67,0 68,-10c1,-7 2,-22 3,-33c0,-13 9,-21 24,-23c21,-3 22,0 22,52l0,56l-140,0c-130,0 -140,-1 -140,-19z"/>
  </g>
  <g opacity="0" fill="#fafefd" id="layer3">
   <path id="svg_13" d="m0,501l0,-438l25,5l25,4l0,165c0,156 -1,165 -20,170c-14,4 -20,14 -20,34l0,29l98,0l97,0l0,67c0,66 1,68 25,68c20,0 26,-6 30,-30c4,-26 10,-30 43,-33l37,-3l-1,159c0,87 -4,163 -7,169c-4,6 -18,13 -32,15c-20,2 -25,8 -23,31l2,27l-140,0l-139,0l0,-439z"/>
   <path id="svg_14" d="m460,911c0,-25 -4,-30 -27,-33l-28,-3l-3,-167l-2,-168l39,0c38,0 40,2 43,33c2,27 8,33 31,35c27,3 27,3 27,-62c0,-42 -4,-66 -12,-69c-7,-3 33,-6 90,-8l102,-4l0,238l0,237l-130,0l-130,0l0,-29z"/>
   <path id="svg_15" d="m294,470c-11,-4 -8,-12 16,-35l30,-29l0,-167l0,-168l-34,-35l-33,-36l76,0l77,0l-4,35c-4,30 -1,35 17,35c21,0 21,4 21,169c0,168 0,170 -22,173c-19,2 -22,8 -20,31c3,20 -1,27 -15,28c-60,4 -95,3 -109,-1z"/>
   <path id="svg_16" d="m537,404c-4,-4 -7,-36 -7,-71l0,-63l70,0l70,0l0,-30c0,-29 -1,-30 -47,-30c-89,0 -93,-4 -93,-76l0,-64l65,0l65,0l-2,33c-3,30 -1,32 30,32l32,0l0,102l0,102l-32,3c-29,3 -33,7 -33,33c-1,29 -2,30 -56,33c-30,2 -58,0 -62,-4z"/>
   <path id="svg_17" d="m120,235l0,-165l58,0c88,0 92,7 92,171c0,92 -4,139 -12,147c-7,7 -39,12 -75,12l-63,0l0,-165z"/>
   <path id="svg_18" d="m0,10c0,-5 5,-10 11,-10c5,0 7,5 4,10c-3,6 -8,10 -11,10c-2,0 -4,-4 -4,-10z"/>
  </g>
 </g>
</svg>