
<svg xmlns="http://www.w3.org/2000/svg" width="994px" height="104px" viewBox="0 0 9940 1040" preserveAspectRatio="xMidYMid meet">
<g id="layer1" fill="#2896f1" stroke="none">
 <path d="M162 951 c-8 -5 -12 -23 -10 -47 3 -37 5 -39 41 -42 l37 -3 0 -340 0 -339 -40 0 -40 0 0 -45 0 -45 246 0 246 0 59 62 59 63 0 309 0 309 -63 64 -64 63 -229 0 c-126 0 -235 -4 -242 -9z m468 -128 l30 -32 0 -267 0 -268 -32 -33 -32 -33 -128 0 -128 0 0 336 0 336 130 -4 130 -3 30 -32z" id="path-0" style="position: relative;"></path>
 <path d="M1191 950 c-142 -30 -264 -155 -306 -315 -54 -208 41 -434 221 -526 60 -30 75 -33 153 -34 78 0 93 3 153 33 152 75 238 220 238 402 -1 95 -13 149 -53 229 -76 152 -251 243 -406 211z m209 -60 c70 -36 106 -67 146 -127 148 -224 64 -547 -166 -634 -145 -54 -302 -5 -394 124 -99 139 -112 316 -36 467 42 83 134 163 220 191 49 16 182 4 230 -21z" id="path-1" style="position: relative;"></path>
 <path d="M1232 879 c-13 -5 -30 -15 -37 -23 -8 -8 -34 -17 -57 -21 -63 -11 -78 -21 -100 -73 -12 -26 -35 -63 -53 -83 l-32 -36 0 -131 -1 -131 33 -33 c17 -18 38 -49 45 -68 19 -51 47 -77 88 -84 21 -4 61 -19 90 -34 l53 -27 49 28 c28 15 56 27 63 27 6 0 29 5 50 11 33 9 42 18 62 62 12 29 34 63 48 75 40 38 51 73 38 130 -7 33 -7 61 -1 83 16 55 12 75 -25 121 -19 24 -43 61 -54 84 -26 57 -43 71 -96 78 -25 4 -62 18 -82 32 -39 26 -46 27 -81 13z m73 -49 c16 -11 54 -25 83 -31 50 -10 55 -13 73 -57 11 -25 35 -63 54 -84 38 -41 39 -44 25 -102 -5 -25 -5 -59 2 -93 l11 -53 -42 -45 c-23 -25 -44 -59 -48 -76 -7 -36 -33 -55 -88 -65 -22 -4 -51 -15 -64 -25 -30 -24 -66 -24 -99 0 -15 10 -43 22 -62 26 -63 12 -68 15 -90 63 -12 26 -34 61 -50 77 -27 29 -27 32 -27 153 0 118 1 124 23 139 13 8 35 40 50 71 15 32 27 58 28 59 2 2 26 7 55 13 29 5 64 19 78 30 32 25 50 25 88 0z" id="path-2" style="position: relative;"></path>
 <path d="M1280 746 c0 -16 37 -46 57 -46 20 0 15 20 -9 41 -28 22 -48 24 -48 5z" id="path-3" style="position: relative;"></path>
 <path d="M1117 743 c-10 -10 -8 -71 2 -77 11 -7 21 18 21 55 0 28 -9 37 -23 22z" id="path-4" style="position: relative;"></path>
 <path d="M1226 670 c-119 -36 -143 -217 -38 -294 36 -27 113 -27 150 0 92 68 80 239 -21 285 -47 21 -50 21 -91 9z m84 -45 c69 -36 81 -153 21 -207 -33 -30 -85 -37 -121 -18 -30 16 -60 74 -60 116 0 94 82 149 160 109z" id="path-5" style="position: relative;"></path>
 <path d="M1440 591 c0 -30 4 -41 16 -41 11 0 14 9 12 37 -4 52 -28 56 -28 4z" id="path-6" style="position: relative;"></path>
 <path d="M1040 440 c0 -29 4 -40 15 -40 11 0 15 11 15 40 0 29 -4 40 -15 40 -11 0 -15 -11 -15 -40z" id="path-7" style="position: relative;"></path>
 <path d="M1423 403 c-7 -2 -13 -11 -13 -19 0 -15 12 -17 48 -8 12 4 22 13 22 20 0 14 -32 18 -57 7z" id="path-8" style="position: relative;"></path>
 <path d="M1238 302 c-28 -16 -36 -36 -20 -46 5 -3 21 6 38 19 37 30 23 52 -18 27z" id="path-9" style="position: relative;"></path>
 <path d="M1750 909 l0 -49 40 0 40 0 -2 -337 -3 -338 -37 -3 c-38 -3 -38 -4 -38 -48 l0 -44 118 0 117 0 52 113 c28 61 100 218 159 347 58 129 111 239 115 245 5 5 9 -126 9 -303 l0 -312 -40 0 -40 0 0 -45 0 -45 135 0 135 0 0 45 0 45 -40 0 -40 0 -2 388 -3 387 -78 0 -78 0 -142 -310 c-78 -171 -151 -329 -161 -352 -11 -24 -23 -43 -28 -43 -4 0 -8 137 -8 305 l0 305 40 0 40 0 0 48 0 48 -130 1 -130 1 0 -49z" id="path-10" style="position: relative;"></path>
 <path d="M3032 911 l3 -46 58 -3 57 -3 -2 -337 -3 -337 -82 -3 -82 -3 -3 68 -3 68 -42 3 -43 3 0 -115 0 -116 310 0 310 0 0 116 0 115 -42 -3 -43 -3 -3 -68 -3 -68 -82 3 -82 3 -3 337 -2 337 57 3 58 3 3 39 c2 24 -2 42 -10 47 -7 5 -84 8 -171 7 l-158 0 3 -47z" id="path-11" style="position: relative;"></path>
 <path d="M4048 953 c-14 -3 -18 -15 -18 -49 l0 -44 40 0 40 0 0 -340 0 -340 -40 0 -40 0 0 -45 0 -45 275 0 275 0 0 115 0 115 -45 0 -44 0 -3 -67 -3 -68 -132 -3 -133 -3 0 151 0 150 136 0 135 0 -3 43 -3 42 -132 3 -133 3 0 145 0 145 133 -3 132 -3 3 -62 3 -63 44 0 45 0 0 113 0 114 -257 1 c-142 0 -266 -2 -275 -5z" id="path-12" style="position: relative;"></path>
 <path d="M4992 949 c-127 -21 -289 -116 -280 -164 6 -29 354 -670 373 -685 8 -7 21 -10 28 -7 7 2 41 58 77 123 35 66 78 144 95 175 247 454 232 411 158 462 -126 87 -292 122 -451 96z m235 -63 c62 -17 150 -56 181 -82 20 -17 21 -21 9 -38 -13 -17 -16 -17 -70 14 -152 86 -351 83 -505 -7 -36 -22 -46 -24 -53 -12 -5 8 -9 19 -9 24 0 23 137 89 225 108 45 10 173 6 222 -7z m3 -118 c43 -13 143 -68 136 -75 -3 -3 -25 2 -49 12 -37 14 -51 15 -87 5 -46 -12 -87 -49 -96 -87 -16 -61 29 -133 92 -149 13 -3 24 -8 24 -11 0 -6 -105 -203 -131 -246 l-17 -29 -37 67 c-21 36 -36 67 -34 69 2 1 22 8 44 14 82 24 110 122 51 180 -36 36 -113 42 -162 13 -43 -25 -35 -32 -94 80 -46 88 -46 86 50 134 86 44 211 53 310 23z m89 -133 c13 -13 12 -20 -7 -60 -18 -38 -26 -45 -51 -45 -20 0 -36 9 -50 27 -24 30 -20 58 12 86 24 21 71 17 96 -8z m-232 -171 c14 -22 14 -26 -1 -49 -32 -48 -111 -23 -104 34 6 51 75 61 105 15z" id="path-13" style="position: relative;"></path>
 <path d="M4947 686 c-40 -37 -42 -66 -3 -66 27 0 88 57 84 79 -6 29 -42 23 -81 -13z" id="path-14" style="position: relative;"></path>
 <path d="M5640 908 l0 -48 60 0 60 0 -2 -337 -3 -338 -85 0 -85 0 0 65 0 65 -42 3 -43 3 0 -115 0 -116 310 0 310 0 0 115 0 115 -45 0 -45 0 0 -70 0 -71 -82 3 -83 3 -3 337 -2 337 57 3 58 3 0 45 0 45 -167 0 -168 1 0 -48z" id="path-15" style="position: relative;"></path>
 <path d="M6726 953 c-3 -3 -6 -26 -6 -50 l0 -43 55 0 55 0 0 -340 0 -340 -85 0 -85 0 0 70 0 70 -45 0 -45 0 0 -115 0 -115 314 0 315 0 -2 113 -2 112 -42 3 -43 3 0 -70 0 -71 -85 0 -85 0 0 340 0 340 55 0 55 0 0 49 0 49 -159 1 c-87 0 -161 -3 -165 -6z" id="path-16" style="position: relative;"></path>
 <path d="M7328 952 c-14 -3 -18 -14 -18 -48 l0 -44 40 0 40 0 0 -340 0 -340 -40 0 -40 0 0 -45 0 -45 135 0 135 0 0 45 0 45 -40 0 -40 0 0 150 0 150 175 0 175 0 0 -150 0 -150 -40 0 -40 0 0 -45 0 -45 135 0 135 0 0 45 0 45 -40 0 -40 0 0 340 0 340 40 0 40 0 0 44 0 45 -52 6 c-29 4 -90 5 -135 3 l-83 -3 0 -47 0 -48 40 0 40 0 0 -145 0 -145 -175 0 -175 0 0 144 0 145 38 3 c36 3 37 4 40 44 3 41 2 42 -33 48 -36 7 -185 6 -217 -2z" id="path-17" style="position: relative;"></path>
 <path d="M8150 910 c0 -48 1 -50 29 -50 27 0 30 -4 49 -72 11 -40 54 -186 96 -325 42 -138 76 -258 76 -267 0 -9 -8 -16 -20 -16 -22 0 -36 -36 -25 -69 6 -20 13 -21 156 -21 l149 0 0 45 c0 42 -2 45 -26 45 -20 0 -24 4 -20 18 3 9 46 154 96 322 50 168 93 313 96 323 4 11 15 17 35 17 28 0 29 2 29 48 l0 47 -120 2 -120 1 0 -49 0 -49 35 0 c42 0 42 -2 12 -100 l-24 -75 -124 -3 c-68 -2 -133 -1 -144 2 -15 4 -27 24 -43 74 -30 94 -29 102 13 102 l35 0 0 48 0 47 -120 2 -120 2 0 -49z m465 -349 c-3 -16 -19 -68 -34 -117 -15 -49 -36 -119 -47 -156 -10 -38 -22 -68 -26 -68 -4 0 -12 19 -18 43 -12 42 -17 60 -65 215 -14 46 -25 90 -25 98 0 11 21 14 111 14 l111 0 -7 -29z" id="path-18" style="position: relative;"></path>
 <path d="M9020 909 l0 -49 55 0 55 0 0 -340 0 -340 -85 0 -85 0 0 70 0 70 -40 0 -40 0 0 -115 0 -115 310 0 310 0 0 115 0 115 -45 0 -45 0 0 -70 0 -70 -85 0 -85 0 0 340 0 339 58 3 57 3 1 42 c2 51 1 52 -193 51 l-143 -1 0 -48z" id="path-19" style="position: relative;"></path>
 <path d="M9667 943 c-3 -7 -3 -26 1 -90 2 -21 7 -23 62 -23 l60 0 0 60 0 60 -59 0 c-33 0 -62 -3 -64 -7z" id="path-20" style="position: relative;"></path>
 <path d="M9665 698 c-3 -10 -35 -567 -35 -617 0 -7 33 -11 95 -11 l95 0 0 48 c0 33 -26 548 -30 590 0 1 -27 2 -60 2 -40 0 -62 -4 -65 -12z" id="path-21" style="position: relative;"></path>
 <path d="M2686 238 c-9 -46 -16 -111 -16 -145 l0 -63 54 0 c34 0 56 5 59 13 5 12 -8 164 -17 202 -3 11 -7 32 -11 48 -4 20 -11 27 -29 27 -21 0 -25 -7 -40 -82z" id="path-22" style="position: relative;"></path>
 </g>
<g id="layer2" fill="#fbfefd" stroke="none">
 <path d="M0 520 l0 -520 4970 0 4970 0 0 520 0 520 -4970 0 -4970 0 0 -520z m697 377 l63 -64 0 -309 0 -309 -59 -63 -59 -62 -246 0 -246 0 0 45 0 45 40 0 40 0 0 339 0 340 -37 3 c-36 3 -38 5 -41 42 -2 24 2 42 10 47 7 5 116 9 242 9 l229 0 64 -63z m710 27 c77 -37 153 -111 190 -185 40 -80 52 -134 53 -229 0 -182 -86 -327 -238 -402 -60 -30 -75 -33 -153 -33 -78 1 -93 4 -153 34 -266 135 -317 529 -96 742 109 106 266 135 397 73z m603 -16 l0 -48 -40 0 -40 0 0 -305 c0 -168 4 -305 8 -305 5 0 17 19 28 43 10 23 83 181 161 352 l142 310 78 0 78 0 3 -387 2 -388 40 0 40 0 0 -45 0 -45 -135 0 -135 0 0 45 0 45 40 0 40 0 0 312 c0 177 -4 308 -9 303 -4 -6 -57 -116 -115 -245 -59 -129 -131 -286 -159 -347 l-52 -113 -117 0 -118 0 0 44 c0 44 0 45 38 48 l37 3 3 338 2 337 -40 0 -40 0 0 49 0 49 130 -1 130 -1 0 -48z m1348 43 c8 -5 12 -23 10 -47 l-3 -39 -58 -3 -57 -3 2 -337 3 -337 82 -3 82 -3 3 68 3 68 43 3 42 3 0 -115 0 -116 -310 0 -310 0 0 116 0 115 43 -3 42 -3 3 -68 3 -68 82 3 82 3 3 337 2 337 -57 3 -58 3 -3 46 -3 47 158 0 c87 1 164 -2 171 -7z m1222 -108 l0 -113 -45 0 -44 0 -3 63 -3 62 -132 3 -133 3 0 -145 0 -145 133 -3 132 -3 3 -42 3 -43 -135 0 -136 0 0 -150 0 -151 133 3 132 3 3 68 3 67 44 0 45 0 0 -115 0 -115 -275 0 -275 0 0 45 0 45 40 0 40 0 0 340 0 340 -40 0 -40 0 0 44 c0 34 4 46 18 49 9 3 133 5 275 5 l257 -1 0 -114z m623 106 c108 -17 262 -92 288 -141 10 -19 7 -26 -206 -417 -17 -31 -60 -109 -95 -175 -36 -65 -70 -121 -77 -123 -7 -3 -20 0 -28 7 -19 15 -367 656 -373 685 -6 31 62 87 154 125 114 47 210 59 337 39z m772 -39 l0 -45 -58 -3 -57 -3 2 -337 3 -337 83 -3 82 -3 0 71 0 70 45 0 45 0 0 -115 0 -115 -310 0 -310 0 0 116 0 115 43 -3 42 -3 0 -65 0 -65 85 0 85 0 3 338 2 337 -60 0 -60 0 0 48 0 48 168 -1 167 0 0 -45z m1075 -1 l0 -49 -55 0 -55 0 0 -340 0 -340 85 0 85 0 0 71 0 70 43 -3 42 -3 2 -112 2 -113 -315 0 -314 0 0 115 0 115 45 0 45 0 0 -70 0 -70 85 0 85 0 0 340 0 340 -55 0 -55 0 0 43 c0 24 3 47 6 50 4 3 78 6 165 6 l159 -1 0 -49z m495 45 c35 -6 36 -7 33 -48 -3 -40 -4 -41 -40 -44 l-38 -3 0 -145 0 -144 175 0 175 0 0 145 0 145 -40 0 -40 0 0 48 0 47 83 3 c45 2 106 1 135 -3 l52 -6 0 -45 0 -44 -40 0 -40 0 0 -340 0 -340 40 0 40 0 0 -45 0 -45 -135 0 -135 0 0 45 0 45 40 0 40 0 0 150 0 150 -175 0 -175 0 0 -150 0 -150 40 0 40 0 0 -45 0 -45 -135 0 -135 0 0 45 0 45 40 0 40 0 0 340 0 340 -40 0 -40 0 0 44 c0 34 4 45 18 48 32 8 181 9 217 2z m845 -46 l0 -48 -35 0 c-42 0 -43 -8 -13 -102 16 -50 28 -70 43 -74 11 -3 76 -4 144 -2 l124 3 24 75 c30 98 30 100 -12 100 l-35 0 0 49 0 49 120 -1 120 -2 0 -47 c0 -46 -1 -48 -29 -48 -20 0 -31 -6 -35 -17 -3 -10 -46 -155 -96 -323 -50 -168 -93 -313 -96 -322 -4 -14 0 -18 20 -18 24 0 26 -3 26 -45 l0 -45 -149 0 c-143 0 -150 1 -156 21 -11 33 3 69 25 69 12 0 20 7 20 16 0 9 -34 129 -76 267 -42 139 -85 285 -96 325 -19 68 -22 72 -49 72 -28 0 -29 2 -29 50 l0 49 120 -2 120 -2 0 -47z m941 45 c24 -4 27 -9 25 -46 l-1 -42 -57 -3 -58 -3 0 -339 0 -340 85 0 85 0 0 70 0 70 45 0 45 0 0 -115 0 -115 -310 0 -310 0 0 115 0 115 40 0 40 0 0 -70 0 -70 85 0 85 0 0 340 0 340 -55 0 -55 0 0 49 0 48 143 1 c78 0 154 -2 168 -5z m459 -63 l0 -60 -60 0 c-55 0 -60 2 -62 23 -4 64 -4 83 -1 90 2 4 31 7 64 7 l59 0 0 -60z m0 -182 c4 -42 30 -557 30 -590 l0 -48 -95 0 c-62 0 -95 4 -95 11 0 50 32 607 35 617 3 8 25 12 65 12 33 0 60 -1 60 -2z m-7035 -415 c4 -16 8 -37 11 -48 9 -38 22 -190 17 -202 -3 -8 -25 -13 -59 -13 l-54 0 0 63 c0 34 7 99 16 145 15 75 19 82 40 82 18 0 25 -7 29 -27z" id="path-23" style="position: relative; display: none;"></path>
 <path d="M340 526 l0 -336 128 0 128 0 32 33 32 33 0 268 0 267 -30 32 -30 32 -130 3 -130 4 0 -336z" id="path-24" style="position: relative; display: none;"></path>
 <path d="M1170 911 c-86 -28 -178 -108 -220 -191 -116 -230 -12 -525 212 -599 57 -19 156 -15 218 8 230 87 314 410 166 634 -67 101 -152 149 -271 153 -44 2 -91 0 -105 -5z m143 -45 c20 -14 57 -28 82 -32 53 -7 70 -21 96 -78 11 -23 35 -60 54 -84 37 -46 41 -66 25 -121 -6 -22 -6 -50 1 -83 13 -57 2 -92 -38 -130 -14 -12 -36 -46 -48 -75 -20 -44 -29 -53 -62 -62 -21 -6 -44 -11 -50 -11 -7 0 -35 -12 -63 -27 l-49 -28 -53 27 c-29 15 -69 30 -90 34 -41 7 -69 33 -88 84 -7 19 -28 50 -45 68 l-33 33 1 131 0 131 32 36 c18 20 41 57 53 83 22 52 37 62 100 73 23 4 49 13 57 21 14 15 52 32 71 33 6 1 27 -10 47 -23z" id="path-25" style="position: relative; display: none;"></path>
 <path d="M1217 830 c-14 -11 -49 -25 -78 -30 -29 -6 -53 -11 -55 -13 -1 -1 -13 -27 -28 -59 -15 -31 -37 -63 -50 -71 -22 -15 -23 -21 -23 -139 0 -121 0 -124 27 -153 16 -16 38 -51 50 -77 22 -48 27 -51 90 -63 19 -4 47 -16 62 -26 33 -24 69 -24 99 0 13 10 42 21 64 25 55 10 81 29 88 65 4 17 25 51 48 76 l42 45 -11 53 c-7 34 -7 68 -2 93 14 58 13 61 -25 102 -19 21 -43 59 -54 84 -18 44 -23 47 -73 57 -29 6 -67 20 -83 31 -38 25 -56 25 -88 0z m111 -89 c41 -35 19 -57 -26 -25 -24 16 -30 44 -9 44 6 -1 22 -9 35 -19z m-188 -20 c0 -37 -10 -62 -21 -55 -10 6 -12 67 -2 77 14 15 23 6 23 -22z m177 -60 c101 -46 113 -217 21 -285 -37 -27 -114 -27 -150 0 -105 77 -81 258 38 294 41 12 44 12 91 -9z m151 -74 c2 -28 -1 -37 -12 -37 -12 0 -16 11 -16 41 0 52 24 48 28 -4z m-398 -147 c0 -29 -4 -40 -15 -40 -11 0 -15 11 -15 40 0 29 4 40 15 40 11 0 15 -11 15 -40z m410 -44 c0 -7 -10 -16 -22 -20 -36 -9 -48 -7 -48 8 0 16 15 24 48 25 12 1 22 -5 22 -13z m-224 -121 c-30 -24 -46 -24 -46 -2 0 19 53 48 65 36 7 -7 0 -18 -19 -34z" id="path-26" style="position: relative; display: none;"></path>
 <path d="M1213 630 c-58 -23 -80 -124 -42 -186 25 -42 47 -54 93 -54 56 0 97 43 103 106 10 103 -67 169 -154 134z" id="path-27" style="position: relative; display: none;"></path>
 <path d="M5005 893 c-88 -19 -225 -85 -225 -108 0 -5 4 -16 9 -24 7 -12 17 -10 53 12 79 46 164 69 258 68 100 0 169 -17 247 -61 54 -31 57 -31 70 -14 12 17 11 21 -9 38 -31 26 -119 65 -181 82 -49 13 -177 17 -222 7z" id="path-28" style="position: relative; display: none;"></path>
 <path d="M5025 780 c-50 -7 -145 -49 -177 -78 -17 -14 -15 -19 22 -91 59 -112 51 -105 94 -80 49 29 126 23 162 -13 59 -58 31 -156 -51 -180 -22 -6 -42 -13 -44 -14 -2 -2 13 -33 34 -69 l37 -67 17 29 c26 43 131 240 131 246 0 3 -11 8 -24 11 -63 16 -108 88 -92 149 9 38 50 75 96 87 36 10 50 9 87 -5 24 -10 46 -15 49 -12 7 7 -93 62 -136 75 -51 15 -148 21 -205 12z m3 -81 c4 -22 -57 -79 -84 -79 -39 0 -37 29 3 66 39 36 75 42 81 13z" id="path-29" style="position: relative; display: none;"></path>
 <path d="M5223 643 c-32 -28 -36 -56 -12 -86 14 -18 30 -27 50 -27 25 0 33 7 51 45 19 40 20 47 7 60 -25 25 -72 29 -96 8z" id="path-30" style="position: relative; display: none;"></path>
 <path d="M5008 486 c-13 -7 -24 -22 -26 -37 -7 -57 72 -82 104 -34 15 23 15 27 1 49 -19 29 -48 37 -79 22z" id="path-31" style="position: relative; display: none;"></path>
 <path d="M8400 576 c0 -8 11 -52 25 -98 48 -155 53 -173 65 -215 6 -24 14 -43 18 -43 4 0 16 30 26 68 11 37 32 107 47 156 15 49 31 101 34 117 l7 29 -111 0 c-90 0 -111 -3 -111 -14z" id="path-32" style="position: relative; display: none;"></path>
 </g>

</svg>